<mxfile host="65bd71144e">
    <diagram id="slU0gLSCWu2B7TCF7iXH" name="Страница 1">
        <mxGraphModel dx="224" dy="90" grid="1" gridSize="10" guides="1" tooltips="1" connect="1" arrows="1" fold="1" page="1" pageScale="1" pageWidth="827" pageHeight="1169" math="0" shadow="0">
            <root>
                <mxCell id="0"/>
                <mxCell id="1" parent="0"/>
                <mxCell id="24" value="" style="edgeStyle=none;rounded=0;html=1;" parent="1" source="2" target="23" edge="1">
                    <mxGeometry relative="1" as="geometry"/>
                </mxCell>
                <mxCell id="2" value="Begin" style="rounded=1;whiteSpace=wrap;html=1;" parent="1" vertex="1">
                    <mxGeometry x="420" y="20" width="80" height="40" as="geometry"/>
                </mxCell>
                <mxCell id="6" value="" style="edgeStyle=none;html=1;" parent="1" source="3" target="5" edge="1">
                    <mxGeometry relative="1" as="geometry"/>
                </mxCell>
                <mxCell id="3" value="int len = length(in_array)&lt;br&gt;int i=0&lt;br&gt;out_array = new array&lt;br&gt;int count = 0" style="whiteSpace=wrap;html=1;rounded=1;arcSize=0;" parent="1" vertex="1">
                    <mxGeometry x="380" y="240" width="160" height="110" as="geometry"/>
                </mxCell>
                <mxCell id="12" value="" style="edgeStyle=none;rounded=0;html=1;" parent="1" source="5" target="11" edge="1">
                    <mxGeometry relative="1" as="geometry">
                        <Array as="points"/>
                    </mxGeometry>
                </mxCell>
                <mxCell id="29" value="Yes" style="edgeLabel;html=1;align=center;verticalAlign=middle;resizable=0;points=[];" parent="12" connectable="0" vertex="1">
                    <mxGeometry x="-0.744" relative="1" as="geometry">
                        <mxPoint y="14" as="offset"/>
                    </mxGeometry>
                </mxCell>
                <mxCell id="27" value="" style="edgeStyle=none;rounded=0;html=1;exitX=0;exitY=0.5;exitDx=0;exitDy=0;" parent="1" source="5" target="26" edge="1">
                    <mxGeometry relative="1" as="geometry">
                        <mxPoint x="420" y="500" as="sourcePoint"/>
                        <Array as="points">
                            <mxPoint x="280" y="430"/>
                            <mxPoint x="280" y="890"/>
                            <mxPoint x="460" y="890"/>
                        </Array>
                    </mxGeometry>
                </mxCell>
                <mxCell id="30" value="No" style="edgeLabel;html=1;align=center;verticalAlign=middle;resizable=0;points=[];" parent="27" connectable="0" vertex="1">
                    <mxGeometry x="-0.9112" relative="1" as="geometry">
                        <mxPoint as="offset"/>
                    </mxGeometry>
                </mxCell>
                <mxCell id="5" value="i &amp;lt; len" style="rhombus;whiteSpace=wrap;html=1;rounded=1;arcSize=0;" parent="1" vertex="1">
                    <mxGeometry x="420" y="410" width="80" height="40" as="geometry"/>
                </mxCell>
                <mxCell id="17" style="edgeStyle=none;rounded=0;html=1;" parent="1" source="9" edge="1">
                    <mxGeometry relative="1" as="geometry">
                        <mxPoint x="740" y="625" as="targetPoint"/>
                    </mxGeometry>
                </mxCell>
                <mxCell id="28" value="No" style="edgeLabel;html=1;align=center;verticalAlign=middle;resizable=0;points=[];" parent="17" connectable="0" vertex="1">
                    <mxGeometry x="-0.4909" y="1" relative="1" as="geometry">
                        <mxPoint as="offset"/>
                    </mxGeometry>
                </mxCell>
                <mxCell id="19" value="Yes" style="edgeStyle=none;rounded=0;html=1;" parent="1" source="9" target="18" edge="1">
                    <mxGeometry relative="1" as="geometry">
                        <Array as="points"/>
                    </mxGeometry>
                </mxCell>
                <mxCell id="9" value="word_len &amp;lt;= 3" style="rhombus;whiteSpace=wrap;html=1;rounded=1;arcSize=0;" parent="1" vertex="1">
                    <mxGeometry x="400" y="600" width="120" height="50" as="geometry"/>
                </mxCell>
                <mxCell id="13" value="" style="edgeStyle=none;rounded=0;html=1;" parent="1" source="11" target="9" edge="1">
                    <mxGeometry relative="1" as="geometry"/>
                </mxCell>
                <mxCell id="11" value="word_len = length(in_array[i])" style="whiteSpace=wrap;html=1;rounded=1;arcSize=0;" parent="1" vertex="1">
                    <mxGeometry x="370" y="500" width="180" height="60" as="geometry"/>
                </mxCell>
                <mxCell id="16" style="edgeStyle=none;rounded=0;html=1;exitX=1;exitY=0.5;exitDx=0;exitDy=0;" parent="1" source="14" edge="1">
                    <mxGeometry relative="1" as="geometry">
                        <mxPoint x="460" y="380" as="targetPoint"/>
                        <Array as="points">
                            <mxPoint x="740" y="825"/>
                            <mxPoint x="740" y="380"/>
                        </Array>
                    </mxGeometry>
                </mxCell>
                <mxCell id="14" value="out_array[count] = in_array[i]&lt;br&gt;count += 1" style="whiteSpace=wrap;html=1;rounded=1;arcSize=0;" parent="1" vertex="1">
                    <mxGeometry x="370" y="790" width="180" height="70" as="geometry"/>
                </mxCell>
                <mxCell id="20" value="" style="edgeStyle=none;rounded=0;html=1;" parent="1" source="18" target="14" edge="1">
                    <mxGeometry relative="1" as="geometry"/>
                </mxCell>
                <mxCell id="18" value="Array.Resize(out_array,&amp;nbsp;&lt;br&gt;length(out_array) += 1)" style="whiteSpace=wrap;html=1;rounded=1;arcSize=0;" parent="1" vertex="1">
                    <mxGeometry x="340" y="700" width="240" height="60" as="geometry"/>
                </mxCell>
                <mxCell id="25" value="" style="edgeStyle=none;rounded=0;html=1;" parent="1" source="23" target="3" edge="1">
                    <mxGeometry relative="1" as="geometry"/>
                </mxCell>
                <mxCell id="23" value="&lt;span style=&quot;color: rgb(240 , 240 , 240) ; font-family: &amp;#34;helvetica&amp;#34; ; font-size: 12px ; font-style: normal ; font-weight: 400 ; letter-spacing: normal ; text-align: center ; text-indent: 0px ; text-transform: none ; word-spacing: 0px ; background-color: rgb(42 , 42 , 42) ; display: inline ; float: none&quot;&gt;string[] in_array = { ... }&lt;/span&gt;" style="shape=parallelogram;perimeter=parallelogramPerimeter;whiteSpace=wrap;html=1;fixedSize=1;" parent="1" vertex="1">
                    <mxGeometry x="370" y="120" width="180" height="40" as="geometry"/>
                </mxCell>
                <mxCell id="26" value="End" style="whiteSpace=wrap;html=1;rounded=1;arcSize=20;" parent="1" vertex="1">
                    <mxGeometry x="420" y="970" width="80" height="40" as="geometry"/>
                </mxCell>
                <mxCell id="38" value="" style="edgeStyle=none;html=1;dashed=1;endArrow=none;endFill=0;" edge="1" parent="1" source="36" target="18">
                    <mxGeometry relative="1" as="geometry"/>
                </mxCell>
                <mxCell id="36" value="&lt;span&gt;Increase&lt;/span&gt;&lt;br&gt;&lt;span&gt;amount of&lt;/span&gt;&lt;br&gt;&lt;span&gt;elements&lt;/span&gt;" style="strokeWidth=2;html=1;shape=mxgraph.flowchart.annotation_2;align=right;labelPosition=right;pointerEvents=1;rotation=0;" vertex="1" parent="1">
                    <mxGeometry x="630" y="680" width="40" height="100" as="geometry"/>
                </mxCell>
            </root>
        </mxGraphModel>
    </diagram>
</mxfile>